<?xml version="1.0" encoding="UTF-8" ?>
<!DOCTYPE svg PUBLIC "-//W3C//DTD SVG 1.1//EN" "http://www.w3.org/Graphics/SVG/1.1/DTD/svg11.dtd">
<svg width="512pt" height="521pt" viewBox="0 0 512 521" version="1.1" xmlns="http://www.w3.org/2000/svg">
    <g id="#efd7c1ff">
    </g>
    <g id="#807a62ff">
        <path fill="#807a62" opacity="1.00"
              d=" M 208.75 20.67 C 227.43 18.54 246.26 19.77 265.00 19.17 C 273.65 18.51 282.33 18.64 290.99 18.96 C 299.20 19.51 307.46 19.02 315.63 20.14 C 329.06 21.31 342.57 20.09 356.02 20.98 C 365.72 21.95 375.68 20.89 385.12 23.83 C 380.19 23.48 375.24 23.73 370.30 23.79 C 363.23 22.82 356.12 22.31 349.01 21.78 C 344.56 21.63 339.98 21.14 335.68 22.54 C 339.06 23.05 342.48 23.17 345.89 23.28 C 345.24 23.91 344.58 24.52 343.91 25.11 C 334.05 24.49 324.16 24.80 314.29 24.41 C 298.20 23.08 282.08 22.01 265.94 21.57 C 258.94 21.51 251.99 20.45 244.99 20.57 C 232.91 20.38 220.83 21.26 208.75 20.67 Z"/>
    </g>
    <g id="#5d573fff">
        <path fill="#5d573f" opacity="1.00"
              d=" M 179.30 21.73 C 187.95 21.35 196.60 20.50 205.28 20.82 C 200.07 22.41 194.64 22.88 189.25 23.43 C 186.80 23.54 184.71 24.84 182.72 26.14 C 179.29 27.12 175.78 27.76 172.26 28.33 C 170.37 28.24 168.48 28.07 166.60 27.90 C 169.34 27.02 172.13 26.32 174.94 25.69 C 177.17 25.54 178.05 23.22 179.30 21.73 Z"/>
    </g>
    <g id="#29230eff">
        <path fill="#29230e" opacity="1.00"
              d=" M 205.28 20.82 C 206.43 20.76 207.59 20.71 208.75 20.67 C 220.83 21.26 232.91 20.38 244.99 20.57 C 251.99 20.45 258.94 21.51 265.94 21.57 C 282.08 22.01 298.20 23.08 314.29 24.41 C 324.16 24.80 334.05 24.49 343.91 25.11 C 352.75 25.92 361.49 23.98 370.30 23.79 C 375.24 23.73 380.19 23.48 385.12 23.83 C 386.16 24.06 387.21 24.27 388.26 24.47 C 381.05 24.96 373.83 25.11 366.61 25.28 C 366.65 25.80 366.72 26.86 366.75 27.38 C 361.09 27.18 355.43 27.44 349.77 27.40 C 341.85 27.07 333.90 27.58 326.00 26.88 C 316.09 26.63 306.16 26.72 296.28 25.72 C 282.88 24.28 269.40 25.33 255.97 25.04 C 246.35 24.01 236.73 22.55 227.01 22.97 C 219.55 23.40 212.06 23.09 204.61 23.65 C 199.63 24.03 194.73 24.99 189.79 25.57 C 187.43 25.70 185.07 25.87 182.72 26.14 C 184.71 24.84 186.80 23.54 189.25 23.43 C 194.64 22.88 200.07 22.41 205.28 20.82 Z"/>
    </g>
    <g id="#8b8466ff">
        <path fill="#8b8466" opacity="1.00"
              d=" M 122.61 28.77 C 141.34 25.35 160.22 22.09 179.30 21.73 C 178.05 23.22 177.17 25.54 174.94 25.69 C 172.13 26.32 169.34 27.02 166.60 27.90 C 168.48 28.07 170.37 28.24 172.26 28.33 C 167.21 29.22 162.20 30.55 157.03 30.57 C 152.81 30.62 148.57 30.70 144.38 31.39 C 115.73 35.89 87.10 42.02 60.22 53.17 C 56.38 54.92 52.77 57.12 49.03 59.09 C 52.15 56.59 55.16 53.87 57.27 50.44 C 54.78 51.11 52.35 51.97 49.96 52.95 C 54.85 49.03 61.08 47.44 66.59 44.60 C 84.62 37.33 103.65 32.86 122.61 28.77 Z"/>
    </g>
    <g id="#666451ff">
        <path fill="#666451" opacity="1.00"
              d=" M 335.68 22.54 C 339.98 21.14 344.56 21.63 349.01 21.78 C 356.12 22.31 363.23 22.82 370.30 23.79 C 361.49 23.98 352.75 25.92 343.91 25.11 C 344.58 24.52 345.24 23.91 345.89 23.28 C 342.48 23.17 339.06 23.05 335.68 22.54 Z"/>
    </g>
    <g id="#a19d7bff">
        <path fill="#a19d7b" opacity="1.00"
              d=" M 204.61 23.65 C 212.06 23.09 219.55 23.40 227.01 22.97 C 236.73 22.55 246.35 24.01 255.97 25.04 C 269.40 25.33 282.88 24.28 296.28 25.72 C 293.84 25.92 291.42 26.21 288.97 26.30 C 261.32 26.39 233.66 26.55 206.00 26.30 C 200.59 26.18 195.20 25.64 189.79 25.57 C 194.73 24.99 199.63 24.03 204.61 23.65 Z"/>
    </g>
    <g id="#131205ff">
        <path fill="#131205" opacity="1.00"
              d=" M 366.61 25.28 C 373.83 25.11 381.05 24.96 388.26 24.47 C 392.97 25.03 397.65 25.81 402.31 26.73 C 402.02 27.37 401.45 28.65 401.16 29.29 C 400.61 29.47 399.51 29.85 398.95 30.04 C 394.97 29.42 390.93 29.22 386.92 28.95 C 380.21 28.27 373.51 27.39 366.75 27.38 C 366.72 26.86 366.65 25.80 366.61 25.28 Z"/>
    </g>
    <g id="#fbf3bfff">
        <path fill="#fbf3bf" opacity="1.00"
              d=" M 172.26 28.33 C 175.78 27.76 179.29 27.12 182.72 26.14 C 185.07 25.87 187.43 25.70 189.79 25.57 C 195.20 25.64 200.59 26.18 206.00 26.30 C 233.66 26.55 261.32 26.39 288.97 26.30 C 291.42 26.21 293.84 25.92 296.28 25.72 C 306.16 26.72 316.09 26.63 326.00 26.88 C 333.90 27.58 341.85 27.07 349.77 27.40 C 357.78 28.17 365.89 28.07 373.87 29.02 C 382.00 31.89 390.59 32.79 399.10 33.87 C 405.84 35.56 412.30 38.20 419.01 40.04 C 420.33 40.46 421.67 40.87 423.01 41.29 C 439.69 50.00 452.88 64.61 461.64 81.12 C 464.22 87.05 463.31 93.61 463.68 99.89 C 464.08 106.58 464.65 113.29 464.12 120.00 C 463.34 128.31 463.89 136.69 463.07 145.01 C 462.16 153.98 462.61 163.02 461.86 172.01 C 461.29 186.33 461.32 200.67 461.21 215.01 C 460.24 237.33 460.91 259.68 460.09 282.01 C 459.30 294.66 459.66 307.36 458.74 320.00 C 458.49 338.77 457.07 357.50 456.64 376.26 C 456.65 382.46 455.84 388.60 455.05 394.73 C 451.82 403.79 448.60 413.03 442.90 420.89 C 433.93 433.30 421.35 442.51 408.50 450.55 C 389.22 462.46 366.91 468.13 344.73 471.60 C 325.95 473.15 307.08 472.08 288.26 472.50 C 263.60 472.45 238.94 472.35 214.28 472.33 C 203.23 471.20 192.09 471.68 181.00 471.29 C 167.12 470.61 153.24 470.08 139.37 469.41 C 124.12 467.71 108.76 467.21 93.50 465.64 C 89.95 465.22 86.42 464.72 82.92 464.02 C 80.58 463.37 78.25 462.73 75.92 462.10 C 70.20 459.57 64.36 457.26 58.97 454.07 C 51.46 449.84 44.72 444.41 38.29 438.71 C 33.97 434.95 30.68 430.16 26.08 426.70 C 23.23 420.86 20.75 414.84 18.63 408.70 C 17.96 406.22 17.25 403.75 16.66 401.25 C 16.43 395.82 16.48 390.37 15.91 384.96 C 15.16 375.32 15.53 365.65 15.23 355.99 C 14.45 343.01 14.70 330.00 14.67 317.00 C 14.46 302.75 15.86 288.53 15.61 274.28 C 16.80 265.91 16.24 257.43 17.15 249.04 C 17.65 231.73 19.08 214.46 19.72 197.15 C 21.54 170.79 24.15 144.49 27.18 118.25 C 28.85 108.53 30.07 98.75 31.29 88.96 C 31.96 85.58 32.94 82.27 34.08 79.02 C 37.11 71.19 42.22 64.06 49.03 59.09 C 52.77 57.12 56.38 54.92 60.22 53.17 C 87.10 42.02 115.73 35.89 144.38 31.39 C 148.57 30.70 152.81 30.62 157.03 30.57 C 162.20 30.55 167.21 29.22 172.26 28.33 M 321.41 192.68 C 310.72 194.77 298.61 201.13 296.67 212.92 C 291.47 228.60 303.49 246.32 319.20 249.49 C 322.78 249.95 326.42 249.90 330.02 249.68 C 335.92 249.43 341.02 246.11 346.49 244.28 C 351.66 242.50 355.08 237.70 356.45 232.57 C 360.23 223.14 360.09 211.00 352.64 203.36 C 348.25 198.30 341.85 195.82 335.75 193.51 C 331.18 191.80 326.16 192.10 321.41 192.68 M 118.49 197.87 C 112.30 199.88 106.56 203.34 101.87 207.86 C 95.25 214.21 90.10 223.42 92.06 232.86 C 93.11 239.08 97.81 243.70 102.42 247.58 C 105.42 250.07 109.00 252.00 112.94 252.32 C 126.30 253.51 139.96 247.79 148.77 237.75 C 153.27 232.71 155.17 225.60 153.90 218.97 C 153.04 210.48 147.13 203.13 139.72 199.25 C 133.30 195.60 125.40 195.96 118.49 197.87 M 392.37 262.42 C 391.35 267.50 394.46 272.03 396.70 276.30 C 399.15 280.20 401.25 284.34 403.96 288.07 C 405.22 289.92 407.73 289.57 409.31 288.36 C 410.16 286.48 410.56 284.29 409.67 282.34 C 407.79 277.51 404.38 273.48 402.11 268.84 C 400.66 266.32 399.70 263.41 397.54 261.38 C 395.93 259.93 393.40 260.65 392.37 262.42 M 342.48 266.51 C 340.82 267.46 341.33 269.66 341.92 271.12 C 343.83 275.05 346.55 278.51 348.74 282.29 C 350.95 285.69 352.85 289.58 356.35 291.86 C 357.88 293.16 360.75 291.74 360.69 289.75 C 361.11 287.15 359.39 284.99 358.09 282.93 C 354.60 277.76 351.71 272.15 347.51 267.49 C 346.37 265.88 344.15 266.22 342.48 266.51 M 187.29 270.43 C 187.09 271.66 187.31 272.93 188.10 273.93 C 191.48 278.69 191.87 284.71 194.00 290.03 C 198.80 302.75 206.02 314.68 215.62 324.37 C 220.50 329.11 226.86 333.58 234.03 332.72 C 239.82 332.52 244.66 328.34 247.51 323.56 C 251.65 316.42 255.01 308.81 257.42 300.91 C 259.93 294.02 260.59 286.63 262.71 279.63 C 263.60 276.30 265.21 272.94 264.54 269.41 C 263.64 267.83 261.97 266.47 260.06 266.58 C 255.32 266.37 250.84 268.27 246.23 269.04 C 233.30 271.32 220.11 271.72 207.01 271.42 C 204.06 271.36 201.19 270.65 198.36 269.92 C 196.53 264.94 190.16 268.17 187.29 270.43 M 365.39 268.44 C 364.64 271.81 367.22 274.48 368.99 277.01 C 372.20 281.09 374.69 285.92 379.00 288.99 C 380.35 290.14 382.16 289.25 383.53 288.63 C 384.12 286.02 383.64 283.26 381.75 281.30 C 378.04 276.97 375.39 271.75 371.14 267.90 C 369.55 266.28 366.56 266.49 365.39 268.44 M 70.41 270.17 C 69.63 278.50 73.25 287.03 79.09 292.88 C 80.84 295.10 84.49 294.70 85.38 291.89 C 85.20 288.45 82.45 286.01 80.80 283.22 C 77.75 278.70 77.70 272.81 74.55 268.39 C 73.03 268.18 70.44 267.99 70.41 270.17 M 103.43 270.25 C 101.05 271.53 101.54 274.67 102.25 276.81 C 104.03 282.31 106.98 287.34 109.31 292.61 C 110.67 295.27 111.70 298.30 114.11 300.24 C 117.81 301.79 120.35 297.29 118.72 294.22 C 115.74 286.74 111.16 279.95 108.70 272.24 C 108.26 269.91 105.32 268.79 103.43 270.25 M 132.42 273.30 C 129.59 276.48 130.71 281.03 131.07 284.85 C 131.78 288.97 131.12 293.37 132.77 297.29 C 134.40 298.33 136.77 298.51 138.01 296.76 C 139.00 293.61 138.29 290.23 138.06 287.00 C 137.45 282.59 137.66 278.00 136.12 273.76 C 134.96 273.25 133.67 273.14 132.42 273.30 Z"/>
    </g>
    <g id="#a4a082ff">
        <path fill="#a4a082" opacity="1.00"
              d=" M 349.77 27.40 C 355.43 27.44 361.09 27.18 366.75 27.38 C 373.51 27.39 380.21 28.27 386.92 28.95 C 390.79 31.01 394.84 32.75 399.10 33.87 C 390.59 32.79 382.00 31.89 373.87 29.02 C 365.89 28.07 357.78 28.17 349.77 27.40 Z"/>
    </g>
    <g id="#484331ff">
        <path fill="#484331" opacity="1.00"
              d=" M 402.31 26.73 C 409.85 28.01 417.51 29.36 424.40 32.86 C 422.99 33.24 421.59 33.66 420.22 34.13 C 422.06 36.14 426.61 37.21 425.70 40.57 C 425.03 40.75 423.68 41.11 423.01 41.29 C 421.67 40.87 420.33 40.46 419.01 40.04 C 416.34 38.40 413.93 36.40 411.36 34.63 C 407.68 32.09 403.26 30.99 398.95 30.04 C 399.51 29.85 400.61 29.47 401.16 29.29 C 401.45 28.65 402.02 27.37 402.31 26.73 Z"/>
    </g>
    <g id="#716e56ff">
        <path fill="#716e56" opacity="1.00"
              d=" M 386.92 28.95 C 390.93 29.22 394.97 29.42 398.95 30.04 C 403.26 30.99 407.68 32.09 411.36 34.63 C 413.93 36.40 416.34 38.40 419.01 40.04 C 412.30 38.20 405.84 35.56 399.10 33.87 C 394.84 32.75 390.79 31.01 386.92 28.95 Z"/>
    </g>
    <g id="#625f49ff">
        <path fill="#625f49" opacity="1.00"
              d=" M 424.40 32.86 C 437.48 39.00 449.05 48.36 457.95 59.73 C 456.71 59.95 455.50 60.21 454.30 60.52 C 454.33 66.95 461.98 69.91 463.56 75.86 C 463.10 77.67 462.29 79.37 461.64 81.12 C 452.88 64.61 439.69 50.00 423.01 41.29 C 423.68 41.11 425.03 40.75 425.70 40.57 C 426.61 37.21 422.06 36.14 420.22 34.13 C 421.59 33.66 422.99 33.24 424.40 32.86 Z"/>
    </g>
    <g id="#26210dff">
        <path fill="#26210d" opacity="1.00"
              d=" M 49.96 52.95 C 52.35 51.97 54.78 51.11 57.27 50.44 C 55.16 53.87 52.15 56.59 49.03 59.09 C 42.22 64.06 37.11 71.19 34.08 79.02 C 32.96 80.76 31.76 82.45 30.43 84.03 C 30.18 82.63 29.96 81.23 29.77 79.83 C 31.03 76.02 31.61 71.57 34.96 68.93 C 40.59 64.20 44.35 57.69 49.96 52.95 Z"/>
    </g>
    <g id="#2b281aff">
        <path fill="#2b281a" opacity="1.00"
              d=" M 454.30 60.52 C 455.50 60.21 456.71 59.95 457.95 59.73 C 459.25 61.17 460.60 62.58 461.96 63.98 C 464.18 69.35 466.60 74.64 469.07 79.90 C 470.63 82.97 470.56 86.47 470.12 89.79 C 469.22 94.67 468.68 99.96 465.40 103.93 C 464.76 102.61 464.19 101.26 463.68 99.89 C 463.31 93.61 464.22 87.05 461.64 81.12 C 462.29 79.37 463.10 77.67 463.56 75.86 C 461.98 69.91 454.33 66.95 454.30 60.52 Z"/>
    </g>
    <g id="#868062ff">
        <path fill="#868062" opacity="1.00"
              d=" M 461.96 63.98 C 464.60 66.38 467.11 68.97 468.95 72.06 C 478.25 86.89 485.79 102.72 493.78 118.27 C 496.45 123.21 499.15 128.15 501.15 133.40 C 499.95 134.22 497.54 134.20 497.54 136.07 C 497.44 137.41 497.60 138.75 497.75 140.09 C 489.08 123.96 481.01 107.52 472.69 91.22 C 472.20 90.70 471.98 89.35 471.01 89.72 L 470.12 89.79 C 470.56 86.47 470.63 82.97 469.07 79.90 C 466.60 74.64 464.18 69.35 461.96 63.98 Z"/>
    </g>
    <g id="#665f44ff">
        <path fill="#665f44" opacity="1.00"
              d=" M 30.43 84.03 C 31.76 82.45 32.96 80.76 34.08 79.02 C 32.94 82.27 31.96 85.58 31.29 88.96 C 29.67 90.63 28.02 92.27 26.22 93.75 C 26.14 93.10 25.97 91.81 25.89 91.17 C 27.10 87.36 28.60 83.65 29.77 79.83 C 29.96 81.23 30.18 82.63 30.43 84.03 Z"/>
    </g>
    <g id="#888365ff">
        <path fill="#888365" opacity="1.00"
              d=" M 26.22 93.75 C 28.02 92.27 29.67 90.63 31.29 88.96 C 30.07 98.75 28.85 108.53 27.18 118.25 C 27.07 115.86 26.91 113.47 26.58 111.10 C 24.92 111.82 23.32 112.69 21.74 113.58 C 22.90 106.08 23.27 98.37 25.89 91.17 C 25.97 91.81 26.14 93.10 26.22 93.75 Z"/>
    </g>
    <g id="#faf3bfff">
        <path fill="#faf3bf" opacity="1.00"
              d=" M 471.01 89.72 C 471.98 89.35 472.20 90.70 472.69 91.22 C 481.01 107.52 489.08 123.96 497.75 140.09 C 499.98 144.13 501.48 148.50 503.01 152.85 C 506.65 177.73 506.19 203.02 503.83 228.00 C 502.46 243.74 500.37 259.44 500.24 275.26 C 498.90 286.46 499.65 297.77 498.82 309.00 C 498.80 337.50 498.72 366.06 495.76 394.43 C 495.24 400.46 494.88 406.51 494.27 412.53 C 493.27 421.48 490.99 430.23 490.27 439.21 C 485.21 451.78 477.88 463.64 468.39 473.35 C 461.28 478.74 454.35 484.57 446.23 488.41 C 442.49 489.90 441.02 494.04 437.66 496.05 C 427.41 500.42 417.17 504.79 406.79 508.85 C 403.63 509.52 400.44 510.13 397.22 510.45 C 382.84 510.26 368.58 512.47 354.28 513.65 C 345.46 514.58 336.59 515.04 327.78 516.11 C 319.72 516.46 311.66 516.80 303.61 517.44 C 286.05 517.96 268.51 519.13 251.01 520.55 C 232.76 521.10 214.49 520.65 196.24 520.90 C 178.85 518.46 161.25 517.10 144.13 513.02 C 139.18 511.79 134.12 511.02 129.04 510.63 C 124.24 509.47 119.39 508.24 115.12 505.67 C 100.38 497.12 84.49 490.48 70.72 480.30 C 64.38 475.89 58.94 470.31 52.44 466.15 C 52.80 465.88 53.53 465.34 53.89 465.07 C 58.45 466.86 63.15 468.27 67.98 469.12 C 73.49 470.36 79.16 470.47 84.72 471.43 C 90.08 472.54 95.58 472.62 101.02 473.11 C 112.31 473.90 123.50 475.79 134.83 476.16 C 155.83 477.96 176.91 478.77 197.98 479.50 C 205.01 479.57 212.03 479.66 219.03 480.21 C 229.01 480.69 239.00 480.38 248.99 480.65 C 258.80 481.05 268.45 478.65 278.25 478.53 C 287.50 478.34 296.75 478.45 305.99 478.26 C 313.63 477.39 321.32 477.23 329.00 476.82 C 334.87 477.01 340.73 477.41 346.62 477.34 C 352.93 477.84 359.21 476.65 365.36 475.38 C 382.48 471.51 399.28 465.54 414.18 456.15 C 426.85 448.27 439.05 439.12 448.11 427.13 C 450.73 423.29 453.49 419.52 455.79 415.48 C 459.68 407.18 461.61 398.13 464.13 389.35 C 466.44 383.15 465.13 376.44 466.02 370.01 C 467.41 343.69 468.28 317.34 469.21 291.00 C 469.85 257.76 469.75 224.51 469.72 191.26 C 470.87 181.21 470.21 171.08 470.80 161.00 C 471.61 149.68 471.38 138.33 472.02 127.00 C 472.70 114.57 472.16 102.11 471.01 89.72 Z"/>
    </g>
    <g id="#605c46ff">
        <path fill="#605c46" opacity="1.00"
              d=" M 470.12 89.79 L 471.01 89.72 C 472.16 102.11 472.70 114.57 472.02 127.00 C 471.38 138.33 471.61 149.68 470.80 161.00 C 470.21 171.08 470.87 181.21 469.72 191.26 C 468.72 185.62 468.52 179.88 468.96 174.18 C 467.48 175.67 467.15 180.10 464.52 178.92 C 464.41 175.98 464.34 173.04 464.25 170.10 C 463.43 170.72 462.64 171.35 461.86 172.01 C 462.61 163.02 462.16 153.98 463.07 145.01 C 463.89 136.69 463.34 128.31 464.12 120.00 C 464.65 113.29 464.08 106.58 463.68 99.89 C 464.19 101.26 464.76 102.61 465.40 103.93 C 468.68 99.96 469.22 94.67 470.12 89.79 Z"/>
    </g>
    <g id="#7f7a5cff">
        <path fill="#7f7a5c" opacity="1.00"
              d=" M 21.74 113.58 C 23.32 112.69 24.92 111.82 26.58 111.10 C 26.91 113.47 27.07 115.86 27.18 118.25 C 24.15 144.49 21.54 170.79 19.72 197.15 C 18.88 195.49 18.10 193.53 16.08 193.06 C 14.41 195.53 13.52 198.42 12.75 201.28 C 12.76 193.14 13.59 185.04 14.34 176.94 C 16.07 155.75 18.85 134.65 21.74 113.58 Z"/>
    </g>
    <g id="#5b5841ff">
        <path fill="#5b5841" opacity="1.00"
              d=" M 497.54 136.07 C 497.54 134.20 499.95 134.22 501.15 133.40 C 503.67 139.79 507.50 145.67 509.31 152.32 C 510.10 160.42 511.50 168.46 512.00 176.59 L 512.00 201.45 C 511.45 203.31 510.85 205.16 510.23 207.00 C 508.87 188.89 510.20 169.93 503.01 152.85 C 501.48 148.50 499.98 144.13 497.75 140.09 C 497.60 138.75 497.44 137.41 497.54 136.07 Z"/>
    </g>
    <g id="#757157ff">
        <path fill="#757157" opacity="1.00"
              d=" M 503.01 152.85 C 510.20 169.93 508.87 188.89 510.23 207.00 C 510.85 205.16 511.45 203.31 512.00 201.45 L 512.00 210.37 C 511.18 226.15 509.96 241.90 508.36 257.62 C 507.85 257.66 506.83 257.73 506.32 257.77 C 506.00 259.79 505.95 261.85 505.68 263.88 C 505.10 263.89 503.93 263.91 503.34 263.91 C 502.88 261.72 503.25 259.34 502.37 257.26 C 502.07 263.30 501.83 269.38 500.24 275.26 C 500.37 259.44 502.46 243.74 503.83 228.00 C 506.19 203.02 506.65 177.73 503.01 152.85 Z"/>
    </g>
    <g id="#4d4b39ff">
        <path fill="#4d4b39" opacity="1.00"
              d=" M 461.86 172.01 C 462.64 171.35 463.43 170.72 464.25 170.10 C 464.34 173.04 464.41 175.98 464.52 178.92 C 467.15 180.10 467.48 175.67 468.96 174.18 C 468.52 179.88 468.72 185.62 469.72 191.26 C 469.75 224.51 469.85 257.76 469.21 291.00 C 468.28 317.34 467.41 343.69 466.02 370.01 C 465.13 376.44 466.44 383.15 464.13 389.35 C 463.14 383.22 464.36 377.12 464.78 371.02 C 465.25 368.15 463.06 365.47 460.24 365.11 C 457.93 368.34 457.60 372.50 456.64 376.26 C 457.07 357.50 458.49 338.77 458.74 320.00 C 459.66 307.36 459.30 294.66 460.09 282.01 C 460.91 259.68 460.24 237.33 461.21 215.01 C 461.32 200.67 461.29 186.33 461.86 172.01 Z"/>
    </g>
    <g id="#474437ff">
        <path fill="#474437" opacity="1.00"
              d=" M 321.41 192.68 C 326.16 192.10 331.18 191.80 335.75 193.51 C 341.85 195.82 348.25 198.30 352.64 203.36 C 360.09 211.00 360.23 223.14 356.45 232.57 C 355.08 237.70 351.66 242.50 346.49 244.28 C 341.02 246.11 335.92 249.43 330.02 249.68 C 326.42 249.90 322.78 249.95 319.20 249.49 C 303.49 246.32 291.47 228.60 296.67 212.92 C 298.61 201.13 310.72 194.77 321.41 192.68 Z"/>
    </g>
    <g id="#726c53ff">
        <path fill="#726c53" opacity="1.00"
              d=" M 16.08 193.06 C 18.10 193.53 18.88 195.49 19.72 197.15 C 19.08 214.46 17.65 231.73 17.15 249.04 C 16.24 257.43 16.80 265.91 15.61 274.28 C 15.17 270.17 15.01 266.04 14.73 261.92 C 12.94 263.04 12.34 265.09 11.51 266.91 C 10.55 267.11 9.55 267.01 8.57 267.03 C 9.73 245.10 10.66 223.14 12.75 201.28 C 13.52 198.42 14.41 195.53 16.08 193.06 Z"/>
    </g>
    <g id="#4c4938ff">
        <path fill="#4c4938" opacity="1.00"
              d=" M 118.49 197.87 C 125.40 195.96 133.30 195.60 139.72 199.25 C 147.13 203.13 153.04 210.48 153.90 218.97 C 155.17 225.60 153.27 232.71 148.77 237.75 C 139.96 247.79 126.30 253.51 112.94 252.32 C 109.00 252.00 105.42 250.07 102.42 247.58 C 97.81 243.70 93.11 239.08 92.06 232.86 C 90.10 223.42 95.25 214.21 101.87 207.86 C 106.56 203.34 112.30 199.88 118.49 197.87 Z"/>
    </g>
    <g id="#67624cff">
        <path fill="#67624c" opacity="1.00"
              d=" M 502.37 257.26 C 503.25 259.34 502.88 261.72 503.34 263.91 C 503.93 263.91 505.10 263.89 505.68 263.88 C 505.95 261.85 506.00 259.79 506.32 257.77 C 506.83 257.73 507.85 257.66 508.36 257.62 C 507.06 269.03 507.60 280.55 506.78 292.00 C 506.54 329.36 507.98 366.97 502.39 404.05 C 501.46 411.05 499.77 417.96 499.51 425.05 C 499.40 428.57 498.29 431.93 497.20 435.25 C 497.32 432.55 497.92 429.69 496.82 427.12 C 495.41 427.57 494.92 429.05 494.31 430.25 C 492.97 433.23 491.64 436.23 490.27 439.21 C 490.99 430.23 493.27 421.48 494.27 412.53 C 494.88 406.51 495.24 400.46 495.76 394.43 C 498.72 366.06 498.80 337.50 498.82 309.00 C 499.65 297.77 498.90 286.46 500.24 275.26 C 501.83 269.38 502.07 263.30 502.37 257.26 Z"/>
    </g>
    <g id="#777556ff">
        <path fill="#777556" opacity="1.00"
              d=" M 392.37 262.42 C 393.40 260.65 395.93 259.93 397.54 261.38 C 399.70 263.41 400.66 266.32 402.11 268.84 C 404.38 273.48 407.79 277.51 409.67 282.34 C 410.56 284.29 410.16 286.48 409.31 288.36 C 407.73 289.57 405.22 289.92 403.96 288.07 C 401.25 284.34 399.15 280.20 396.70 276.30 C 394.46 272.03 391.35 267.50 392.37 262.42 Z"/>
    </g>
    <g id="#625e49ff">
        <path fill="#625e49" opacity="1.00"
              d=" M 11.51 266.91 C 12.34 265.09 12.94 263.04 14.73 261.92 C 15.01 266.04 15.17 270.17 15.61 274.28 C 15.86 288.53 14.46 302.75 14.67 317.00 C 14.70 330.00 14.45 343.01 15.23 355.99 C 15.53 365.65 15.16 375.32 15.91 384.96 C 16.48 390.37 16.43 395.82 16.66 401.25 C 14.73 395.03 14.82 388.51 14.69 382.09 C 13.35 382.94 11.87 383.74 10.99 385.12 C 10.66 386.79 10.65 388.50 10.63 390.21 C 7.43 376.40 6.42 362.15 6.58 348.00 C 6.40 320.99 6.74 293.97 8.57 267.03 C 9.55 267.01 10.55 267.11 11.51 266.91 Z"/>
    </g>
    <g id="#858162ff">
        <path fill="#858162" opacity="1.00"
              d=" M 342.48 266.51 C 344.15 266.22 346.37 265.88 347.51 267.49 C 351.71 272.15 354.60 277.76 358.09 282.93 C 359.39 284.99 361.11 287.15 360.69 289.75 C 360.75 291.74 357.88 293.16 356.35 291.86 C 352.85 289.58 350.95 285.69 348.74 282.29 C 346.55 278.51 343.83 275.05 341.92 271.12 C 341.33 269.66 340.82 267.46 342.48 266.51 Z"/>
    </g>
    <g id="#5b5948ff">
        <path fill="#5b5948" opacity="1.00"
              d=" M 187.29 270.43 C 190.16 268.17 196.53 264.94 198.36 269.92 C 199.17 272.12 199.84 274.38 200.49 276.65 C 200.94 278.36 201.39 280.08 201.88 281.79 C 205.52 293.93 212.12 305.08 220.29 314.71 C 223.78 318.38 227.63 322.72 232.97 323.27 C 238.17 322.55 240.37 316.97 242.60 312.90 C 243.45 313.67 244.34 314.41 245.25 315.11 C 245.58 315.00 246.22 314.76 246.55 314.64 C 249.10 308.91 252.65 303.55 254.24 297.43 C 255.14 298.73 256.23 299.87 257.42 300.91 C 255.01 308.81 251.65 316.42 247.51 323.56 C 244.66 328.34 239.82 332.52 234.03 332.72 C 226.86 333.58 220.50 329.11 215.62 324.37 C 206.02 314.68 198.80 302.75 194.00 290.03 C 191.87 284.71 191.48 278.69 188.10 273.93 C 187.31 272.93 187.09 271.66 187.29 270.43 Z"/>
    </g>
    <g id="#6c6950ff">
        <path fill="#6c6950" opacity="1.00"
              d=" M 246.23 269.04 C 250.84 268.27 255.32 266.37 260.06 266.58 C 261.97 266.47 263.64 267.83 264.54 269.41 C 265.21 272.94 263.60 276.30 262.71 279.63 C 260.59 286.63 259.93 294.02 257.42 300.91 C 256.23 299.87 255.14 298.73 254.24 297.43 C 253.77 290.44 259.55 284.95 259.18 278.01 C 259.21 275.08 256.92 272.24 253.95 271.95 C 250.12 272.68 247.00 275.65 243.02 275.88 C 233.34 276.27 223.64 275.89 214.00 274.98 C 209.28 274.03 205.13 278.46 200.49 276.65 C 199.84 274.38 199.17 272.12 198.36 269.92 C 201.19 270.65 204.06 271.36 207.01 271.42 C 220.11 271.72 233.30 271.32 246.23 269.04 Z"/>
    </g>
    <g id="#827f60ff">
        <path fill="#827f60" opacity="1.00"
              d=" M 365.39 268.44 C 366.56 266.49 369.55 266.28 371.14 267.90 C 375.39 271.75 378.04 276.97 381.75 281.30 C 383.64 283.26 384.12 286.02 383.53 288.63 C 382.16 289.25 380.35 290.14 379.00 288.99 C 374.69 285.92 372.20 281.09 368.99 277.01 C 367.22 274.48 364.64 271.81 365.39 268.44 Z"/>
    </g>
    <g id="#898464ff">
        <path fill="#898464" opacity="1.00"
              d=" M 70.41 270.17 C 70.44 267.99 73.03 268.18 74.55 268.39 C 77.70 272.81 77.75 278.70 80.80 283.22 C 82.45 286.01 85.20 288.45 85.38 291.89 C 84.49 294.70 80.84 295.10 79.09 292.88 C 73.25 287.03 69.63 278.50 70.41 270.17 Z"/>
    </g>
    <g id="#7f7b5cff">
        <path fill="#7f7b5c" opacity="1.00"
              d=" M 103.43 270.25 C 105.32 268.79 108.26 269.91 108.70 272.24 C 111.16 279.95 115.74 286.74 118.72 294.22 C 120.35 297.29 117.81 301.79 114.11 300.24 C 111.70 298.30 110.67 295.27 109.31 292.61 C 106.98 287.34 104.03 282.31 102.25 276.81 C 101.54 274.67 101.05 271.53 103.43 270.25 Z"/>
    </g>
    <g id="#676666ff">
        <path fill="#676666" opacity="1.00"
              d=" M 243.02 275.88 C 247.00 275.65 250.12 272.68 253.95 271.95 C 256.92 272.24 259.21 275.08 259.18 278.01 C 259.55 284.95 253.77 290.44 254.24 297.43 C 252.65 303.55 249.10 308.91 246.55 314.64 C 246.22 314.76 245.58 315.00 245.25 315.11 C 244.34 314.41 243.45 313.67 242.60 312.90 C 247.70 301.54 251.28 289.49 252.92 277.14 C 247.94 277.44 243.07 278.63 238.12 279.10 C 226.12 280.30 214.03 279.60 202.01 279.45 C 201.98 280.04 201.92 281.21 201.88 281.79 C 201.39 280.08 200.94 278.36 200.49 276.65 C 205.13 278.46 209.28 274.03 214.00 274.98 C 223.64 275.89 233.34 276.27 243.02 275.88 Z"/>
    </g>
    <g id="#908d6bff">
        <path fill="#908d6b" opacity="1.00"
              d=" M 132.42 273.30 C 133.67 273.14 134.96 273.25 136.12 273.76 C 137.66 278.00 137.45 282.59 138.06 287.00 C 138.29 290.23 139.00 293.61 138.01 296.76 C 136.77 298.51 134.40 298.33 132.77 297.29 C 131.12 293.37 131.78 288.97 131.07 284.85 C 130.71 281.03 129.59 276.48 132.42 273.30 Z"/>
    </g>
    <g id="#fefefeff">
        <path fill="#fefefe" opacity="1.00"
              d=" M 238.12 279.10 C 243.07 278.63 247.94 277.44 252.92 277.14 C 251.28 289.49 247.70 301.54 242.60 312.90 C 240.37 316.97 238.17 322.55 232.97 323.27 C 227.63 322.72 223.78 318.38 220.29 314.71 C 212.12 305.08 205.52 293.93 201.88 281.79 C 201.92 281.21 201.98 280.04 202.01 279.45 C 214.03 279.60 226.12 280.30 238.12 279.10 Z"/>
    </g>
    <g id="#272418ff">
        <path fill="#272418" opacity="1.00"
              d=" M 460.24 365.11 C 463.06 365.47 465.25 368.15 464.78 371.02 C 464.36 377.12 463.14 383.22 464.13 389.35 C 461.61 398.13 459.68 407.18 455.79 415.48 C 454.74 408.60 455.64 401.64 455.05 394.73 C 455.84 388.60 456.65 382.46 456.64 376.26 C 457.60 372.50 457.93 368.34 460.24 365.11 Z"/>
    </g>
    <g id="#2f2913ff">
        <path fill="#2f2913" opacity="1.00"
              d=" M 10.99 385.12 C 11.87 383.74 13.35 382.94 14.69 382.09 C 14.82 388.51 14.73 395.03 16.66 401.25 C 17.25 403.75 17.96 406.22 18.63 408.70 C 18.07 411.42 17.35 414.11 16.56 416.79 L 15.85 416.10 C 13.46 407.61 12.76 398.76 10.63 390.21 C 10.65 388.50 10.66 386.79 10.99 385.12 Z"/>
    </g>
    <g id="#68654bff">
        <path fill="#68654b" opacity="1.00"
              d=" M 442.90 420.89 C 448.60 413.03 451.82 403.79 455.05 394.73 C 455.64 401.64 454.74 408.60 455.79 415.48 C 453.49 419.52 450.73 423.29 448.11 427.13 C 439.05 439.12 426.85 448.27 414.18 456.15 C 399.28 465.54 382.48 471.51 365.36 475.38 C 359.21 476.65 352.93 477.84 346.62 477.34 C 350.63 475.24 355.40 475.01 359.20 472.51 C 354.38 472.24 349.53 472.22 344.73 471.60 C 366.91 468.13 389.22 462.46 408.50 450.55 C 421.35 442.51 433.93 433.30 442.90 420.89 Z"/>
    </g>
    <g id="#3f3b2aff">
        <path fill="#3f3b2a" opacity="1.00"
              d=" M 18.63 408.70 C 20.75 414.84 23.23 420.86 26.08 426.70 C 28.48 436.08 36.56 442.10 42.83 448.87 C 42.18 449.47 41.54 450.07 40.89 450.68 C 37.41 447.99 34.36 444.80 30.88 442.12 C 35.40 449.84 43.20 454.77 48.64 461.75 C 48.27 461.85 47.52 462.07 47.14 462.18 C 41.24 458.83 36.26 454.12 30.80 450.13 C 26.91 445.61 23.36 440.75 20.66 435.41 C 21.35 433.47 23.12 431.38 21.76 429.33 C 19.76 425.26 17.88 421.13 16.56 416.79 C 17.35 414.11 18.07 411.42 18.63 408.70 Z"/>
    </g>
    <g id="#68614cff">
        <path fill="#68614c" opacity="1.00"
              d=" M 15.85 416.10 L 16.56 416.79 C 17.88 421.13 19.76 425.26 21.76 429.33 C 23.12 431.38 21.35 433.47 20.66 435.41 C 17.09 429.61 16.95 422.63 15.85 416.10 Z"/>
    </g>
    <g id="#736f56ff">
        <path fill="#736f56" opacity="1.00"
              d=" M 26.08 426.70 C 30.68 430.16 33.97 434.95 38.29 438.71 C 44.72 444.41 51.46 449.84 58.97 454.07 C 64.36 457.26 70.20 459.57 75.92 462.10 C 63.98 460.75 52.09 456.75 42.83 448.87 C 36.56 442.10 28.48 436.08 26.08 426.70 Z"/>
    </g>
    <g id="#2e291cff">
        <path fill="#2e291c" opacity="1.00"
              d=" M 494.31 430.25 C 494.92 429.05 495.41 427.57 496.82 427.12 C 497.92 429.69 497.32 432.55 497.20 435.25 C 494.88 441.64 494.94 449.04 490.49 454.51 C 484.75 462.11 480.78 471.17 473.51 477.52 C 462.81 485.61 451.09 492.19 439.76 499.32 C 439.24 499.12 438.21 498.72 437.69 498.52 C 437.63 497.69 437.62 496.87 437.66 496.05 C 441.02 494.04 442.49 489.90 446.23 488.41 C 454.35 484.57 461.28 478.74 468.39 473.35 C 477.88 463.64 485.21 451.78 490.27 439.21 C 491.64 436.23 492.97 433.23 494.31 430.25 Z"/>
    </g>
    <g id="#615f48ff">
        <path fill="#615f48" opacity="1.00"
              d=" M 30.88 442.12 C 34.36 444.80 37.41 447.99 40.89 450.68 C 46.87 455.26 52.99 459.75 59.78 463.09 C 62.88 464.56 65.63 466.63 67.98 469.12 C 63.15 468.27 58.45 466.86 53.89 465.07 C 51.61 464.18 49.32 463.30 47.14 462.18 C 47.52 462.07 48.27 461.85 48.64 461.75 C 43.20 454.77 35.40 449.84 30.88 442.12 Z"/>
    </g>
    <g id="#1f1c13ff">
        <path fill="#1f1c13" opacity="1.00"
              d=" M 40.89 450.68 C 41.54 450.07 42.18 449.47 42.83 448.87 C 52.09 456.75 63.98 460.75 75.92 462.10 C 78.25 462.73 80.58 463.37 82.92 464.02 C 86.50 465.28 89.63 467.59 91.26 471.11 C 89.08 471.24 86.90 471.37 84.72 471.43 C 79.16 470.47 73.49 470.36 67.98 469.12 C 65.63 466.63 62.88 464.56 59.78 463.09 C 52.99 459.75 46.87 455.26 40.89 450.68 Z"/>
    </g>
    <g id="#8a8368ff">
        <path fill="#8a8368" opacity="1.00"
              d=" M 30.80 450.13 C 36.26 454.12 41.24 458.83 47.14 462.18 C 49.32 463.30 51.61 464.18 53.89 465.07 C 53.53 465.34 52.80 465.88 52.44 466.15 C 51.01 467.30 49.84 468.73 48.65 470.11 C 41.91 464.22 35.83 457.54 30.80 450.13 Z"/>
    </g>
    <g id="#484333ff">
        <path fill="#484333" opacity="1.00"
              d=" M 82.92 464.02 C 86.42 464.72 89.95 465.22 93.50 465.64 C 94.28 467.24 95.17 468.90 95.04 470.76 C 93.78 470.93 92.52 471.04 91.26 471.11 C 89.63 467.59 86.50 465.28 82.92 464.02 Z"/>
    </g>
    <g id="#7c7659ff">
        <path fill="#7c7659" opacity="1.00"
              d=" M 52.44 466.15 C 58.94 470.31 64.38 475.89 70.72 480.30 C 84.49 490.48 100.38 497.12 115.12 505.67 C 112.30 505.90 109.45 506.27 106.80 507.32 C 106.81 507.76 106.82 508.64 106.82 509.08 C 100.86 506.67 95.44 503.13 89.69 500.28 C 74.53 492.44 60.59 482.31 48.65 470.11 C 49.84 468.73 51.01 467.30 52.44 466.15 Z"/>
    </g>
    <g id="#787558ff">
        <path fill="#787558" opacity="1.00"
              d=" M 93.50 465.64 C 108.76 467.21 124.12 467.71 139.37 469.41 C 137.69 471.10 136.10 472.88 134.69 474.80 C 135.82 475.09 136.95 475.39 138.03 475.87 C 137.23 475.94 135.63 476.09 134.83 476.16 C 123.50 475.79 112.31 473.90 101.02 473.11 C 95.58 472.62 90.08 472.54 84.72 471.43 C 86.90 471.37 89.08 471.24 91.26 471.11 C 92.52 471.04 93.78 470.93 95.04 470.76 C 95.17 468.90 94.28 467.24 93.50 465.64 Z"/>
    </g>
    <g id="#6f6c51ff">
        <path fill="#6f6c51" opacity="1.00"
              d=" M 134.69 474.80 C 136.10 472.88 137.69 471.10 139.37 469.41 C 153.24 470.08 167.12 470.61 181.00 471.29 C 192.09 471.68 203.23 471.20 214.28 472.33 C 208.50 473.20 202.64 472.80 196.83 473.35 C 199.68 474.12 202.58 474.70 205.52 475.04 C 202.73 476.90 199.36 476.79 196.16 476.81 C 196.74 477.71 197.35 478.61 197.98 479.50 C 176.91 478.77 155.83 477.96 134.83 476.16 C 135.63 476.09 137.23 475.94 138.03 475.87 C 136.95 475.39 135.82 475.09 134.69 474.80 Z"/>
    </g>
    <g id="#635f45ff">
        <path fill="#635f45" opacity="1.00"
              d=" M 214.28 472.33 C 238.94 472.35 263.60 472.45 288.26 472.50 C 280.51 472.68 272.71 474.18 265.83 477.86 C 269.96 478.22 274.10 478.48 278.25 478.53 C 268.45 478.65 258.80 481.05 248.99 480.65 C 239.00 480.38 229.01 480.69 219.03 480.21 C 212.03 479.66 205.01 479.57 197.98 479.50 C 197.35 478.61 196.74 477.71 196.16 476.81 C 199.36 476.79 202.73 476.90 205.52 475.04 C 202.58 474.70 199.68 474.12 196.83 473.35 C 202.64 472.80 208.50 473.20 214.28 472.33 Z"/>
    </g>
    <g id="#262114ff">
        <path fill="#262114" opacity="1.00"
              d=" M 288.26 472.50 C 307.08 472.08 325.95 473.15 344.73 471.60 C 349.53 472.22 354.38 472.24 359.20 472.51 C 355.40 475.01 350.63 475.24 346.62 477.34 C 340.73 477.41 334.87 477.01 329.00 476.82 C 321.32 477.23 313.63 477.39 305.99 478.26 C 296.75 478.45 287.50 478.34 278.25 478.53 C 274.10 478.48 269.96 478.22 265.83 477.86 C 272.71 474.18 280.51 472.68 288.26 472.50 Z"/>
    </g>
    <g id="#766f53ff">
        <path fill="#766f53" opacity="1.00"
              d=" M 406.79 508.85 C 417.17 504.79 427.41 500.42 437.66 496.05 C 437.62 496.87 437.63 497.69 437.69 498.52 C 438.21 498.72 439.24 499.12 439.76 499.32 C 434.42 502.34 429.31 505.84 423.53 508.00 C 417.93 507.84 412.37 508.51 406.79 508.85 Z"/>
    </g>
    <g id="#3f3b24ff">
        <path fill="#3f3b24" opacity="1.00"
              d=" M 106.80 507.32 C 109.45 506.27 112.30 505.90 115.12 505.67 C 119.39 508.24 124.24 509.47 129.04 510.63 C 132.83 513.18 137.45 514.21 140.97 517.21 C 138.01 516.72 135.02 516.46 132.06 516.01 C 123.93 512.81 115.41 510.63 106.82 509.08 C 106.82 508.64 106.81 507.76 106.80 507.32 Z"/>
    </g>
    <g id="#37311bff">
        <path fill="#37311b" opacity="1.00"
              d=" M 406.79 508.85 C 412.37 508.51 417.93 507.84 423.53 508.00 C 416.33 511.89 408.53 514.91 400.23 514.92 C 397.14 514.91 394.04 514.82 390.97 514.46 C 392.49 512.39 394.93 511.41 397.22 510.45 C 400.44 510.13 403.63 509.52 406.79 508.85 Z"/>
    </g>
    <g id="#686548ff">
        <path fill="#686548" opacity="1.00"
              d=" M 129.04 510.63 C 134.12 511.02 139.18 511.79 144.13 513.02 C 161.25 517.10 178.85 518.46 196.24 520.90 L 195.18 521.00 L 154.55 521.00 C 150.00 519.82 145.46 518.60 140.97 517.21 C 137.45 514.21 132.83 513.18 129.04 510.63 Z"/>
    </g>
    <g id="#4c4833ff">
        <path fill="#4c4833" opacity="1.00"
              d=" M 354.28 513.65 C 368.58 512.47 382.84 510.26 397.22 510.45 C 394.93 511.41 392.49 512.39 390.97 514.46 C 394.04 514.82 397.14 514.91 400.23 514.92 C 386.06 518.25 371.15 517.05 357.12 521.00 L 320.26 521.00 C 327.04 518.80 334.23 519.65 341.18 518.54 C 348.44 517.50 355.88 518.23 363.04 516.40 C 351.36 514.29 339.53 516.30 327.78 516.11 C 336.59 515.04 345.46 514.58 354.28 513.65 Z"/>
    </g>
    <g id="#262310ff">
        <path fill="#262310" opacity="1.00"
              d=" M 327.78 516.11 C 339.53 516.30 351.36 514.29 363.04 516.40 C 355.88 518.23 348.44 517.50 341.18 518.54 C 334.23 519.65 327.04 518.80 320.26 521.00 L 303.79 521.00 C 303.73 519.81 303.67 518.62 303.61 517.44 C 311.66 516.80 319.72 516.46 327.78 516.11 Z"/>
    </g>
    <g id="#fbf7ecff">
        <path fill="#fbf7ec" opacity="1.00"
              d=" M 0.00 515.27 C 1.85 517.01 3.49 518.94 4.98 521.00 L 0.00 521.00 L 0.00 515.27 Z"/>
    </g>
    <g id="#bcb697ff">
        <path fill="#bcb697" opacity="1.00"
              d=" M 132.06 516.01 C 135.02 516.46 138.01 516.72 140.97 517.21 C 145.46 518.60 150.00 519.82 154.55 521.00 L 144.59 521.00 C 140.06 520.42 135.68 518.85 132.06 516.01 Z"/>
    </g>
    <g id="#3c3820ff">
        <path fill="#3c3820" opacity="1.00"
              d=" M 251.01 520.55 C 268.51 519.13 286.05 517.96 303.61 517.44 C 303.67 518.62 303.73 519.81 303.79 521.00 L 195.18 521.00 L 196.24 520.90 C 214.49 520.65 232.76 521.10 251.01 520.55 Z"/>
    </g>
</svg>
